<svg width="405" height="405" viewBox="0 0 405 405" fill="none" xmlns="http://www.w3.org/2000/svg">
<path d="M404.03 202.01C404.03 313.57 313.58 404.02 202.01 404.02C90.45 404.02 0 313.58 0 202.01C0 90.44 90.45 8.29107e-07 202.01 8.29107e-07C313.59 -0.00999917 404.03 90.44 404.03 202.01Z" fill="#FBDD00"/>
<path d="M94.2598 196.049L107.77 146.859H113.62L97.1998 204.119H91.4298L76.2098 152.359L60.9898 204.119H55.2298L38.7998 146.859H44.6398L58.1498 196.049L72.5898 146.859H79.8198L94.2598 196.049Z" fill="#1A1A1A"/>
<path d="M147.23 179.28C147.23 181.09 147.06 182.98 146.71 184.95H119.71C119.8 195.01 124.52 200.43 133.91 200.43C138.21 200.43 142.58 199.31 145.86 197.77L146.81 202.06C143.26 203.79 138.2 204.99 133.3 204.99C120.22 204.99 113.87 195.62 113.87 183.66C113.87 171.27 120.74 162.24 131.93 162.24C142.68 162.25 147.23 169.81 147.23 179.28ZM119.72 180.39H141.73C142.42 172.48 139.15 166.63 131.66 166.63C124.11 166.64 119.99 173.6 119.72 180.39Z" fill="#1A1A1A"/>
<path d="M161.85 194.32C161.85 197.77 162.8 200.17 166.67 200.17C168.13 200.17 169.33 200.08 170.63 199.65L170.89 203.95C169.43 204.47 167.45 204.81 165.29 204.81C158.93 204.81 156.09 200.51 156.09 194.66V143.42H161.86V194.32H161.85Z" fill="#1A1A1A"/>
<path d="M205.87 164.57L205.1 169.13C202.1 167.84 198.57 167.07 195.22 167.07C185.16 167.07 180.6 173.86 180.6 183.67C180.6 193.47 185.16 200.27 195.22 200.27C198.57 200.27 202 199.5 205.01 198.21L205.86 202.77C203.03 204.14 198.31 205.01 194.78 205.01C180.93 205.01 174.83 195.03 174.83 183.68C174.83 172.33 180.93 162.36 194.78 162.36C198.74 162.34 203.04 163.19 205.87 164.57Z" fill="#1A1A1A"/>
<path d="M230.9 204.99C218.42 204.99 211.64 194.92 211.64 183.66C211.64 172.31 218.42 162.24 230.9 162.24C243.37 162.24 250.16 172.3 250.16 183.66C250.17 194.92 243.37 204.99 230.9 204.99ZM230.9 166.89C221.95 166.89 217.39 174.37 217.39 183.66C217.39 192.95 221.95 200.35 230.9 200.35C239.84 200.35 244.4 192.95 244.4 183.66C244.4 174.37 239.84 166.89 230.9 166.89Z" fill="#1A1A1A"/>
<path d="M289.38 174.29C289.98 176.35 290.32 179.36 290.32 182.37V204.12H284.55V182.8C284.55 173.94 282.23 167.06 274.41 167.06C269.95 167.06 265.81 170.16 263.23 173.43V204.12H257.46V163.1H262.88V169.04C265.62 165.08 270.61 162.24 276.2 162.24C281.88 162.24 285.66 165.34 287.98 170.24C291.43 165.6 296.15 162.24 302.96 162.24C313.19 162.24 317.39 171.19 317.39 182.37V204.12H311.64V182.8C311.64 173.94 309.4 167.06 301.49 167.06C296.43 167.06 292.64 170.42 289.38 174.29Z" fill="#1A1A1A"/>
<path d="M359.36 179.28C359.36 181.09 359.2 182.98 358.84 184.95H331.85C331.92 195.01 336.65 200.43 346.03 200.43C350.33 200.43 354.72 199.31 357.99 197.77L358.94 202.06C355.43 203.79 350.33 204.99 345.43 204.99C332.36 204.99 325.99 195.62 325.99 183.66C325.99 171.27 332.87 162.24 344.06 162.24C354.81 162.25 359.36 169.81 359.36 179.28ZM331.85 180.39H353.86C354.54 172.48 351.27 166.63 343.79 166.63C336.23 166.64 332.1 173.6 331.85 180.39Z" fill="#1A1A1A"/>
<path d="M90.0596 220.85L88.3396 229.71C84.7296 228.33 79.9996 227.38 75.5996 227.38C62.6196 227.38 55.3996 234.26 55.3996 247.42C55.3996 260.58 62.6196 267.46 75.5996 267.46C79.9896 267.46 84.7196 266.51 88.3396 265.14L90.0596 273.99C86.0196 275.97 79.4796 277.09 73.8096 277.09C54.0296 277.09 43.3696 264.53 43.3696 247.42C43.3696 230.31 54.0296 217.75 73.8096 217.75C79.4796 217.75 86.0196 218.87 90.0596 220.85Z" fill="#1A1A1A"/>
<path d="M133.05 234.17V276.05H121.69V270.37C118.78 274.85 114.48 276.91 109.49 276.91C98.6497 276.91 94.6997 267.02 94.6997 255.92V234.16H106.49V256C106.49 263.48 108.37 267.52 113.7 267.52C117.14 267.52 119.72 265.63 121.27 263.48V234.16H133.05V234.17Z" fill="#1A1A1A"/>
<path d="M168.21 244.23H166.25C160.4 244.23 156.62 246.12 154.29 249.56V276.05H142.5V234.17H153.86V241.57C155.49 236.67 158.93 233.75 164.69 233.75C166.16 233.75 167.27 233.92 168.21 234.18V244.23Z" fill="#1A1A1A"/>
<path d="M207.68 251.37C207.68 253.61 207.33 256.1 206.83 258.09H181.98C182.24 264.28 185.58 268.23 193.33 268.23C197.81 268.23 202.18 267.28 205.54 265.73L207 273.73C202.86 275.79 197.36 276.92 191.78 276.92C177.85 276.92 169.94 268.23 169.94 255.33C169.94 242.17 177.68 233.32 190.58 233.32C201.68 233.31 207.68 240.45 207.68 251.37ZM182.05 250.17H196.42C196.94 244.84 194.78 241.22 189.88 241.22C185.07 241.22 182.48 245.01 182.05 250.17Z" fill="#1A1A1A"/>
<path d="M210.34 234.33H217.58V235.28H214.44V244.21H213.49V235.28H210.33V234.33H210.34Z" fill="#636467"/>
<path d="M219.44 234.33H221.06L223.94 242.29L226.8 234.33H228.42V244.21H227.48V235.22L224.22 244.21H223.66L220.41 235.22V244.21H219.44V234.33Z" fill="#636467"/>
</svg>
